{"title":"Naruto.Shippuuden.Ep-304.480p.10BiT[gWc].mkv","uid":8256476,"size":62692754,"categoryP":"video","categoryS":"tv_shows","magnet":"?xt=urn:btih:618eb103e2d1ce4fb173f4203c7e7995fa5f815b&amp;dn=Naruto.Shippuuden.Ep-304.480p.10BiT%5BgWc%5D.mkv&amp;tr=udp%3A%2F%2Ftracker.openbittorrent.com%3A80&amp;tr=udp%3A%2F%2Fopen.demonii.com%3A1337&amp;tr=udp%3A%2F%2Ftracker.coppersurfer.tk%3A6969&amp;tr=udp%3A%2F%2Fexodus.desync.com%3A6969","seeders":1,"leechers":0,"uploader":"canc232","files":1,"time":1363278226,"description":"Naruto Shippuden - Ep -  304\n\n&quot;The Underworld Transfer Jutsu&quot;\n\nScreens: &lt;a href=&quot;\nhttp://imageshack.us/a/img195/9756/horriblesubsnarutoshippg.jpg&quot; rel=&quot;nofollow&quot; target=&quot;_NEW&quot;&gt;\nhttp://imageshack.us/a/img195/9756/horriblesubsnarutoshippg.jpg&lt;/a&gt; &lt;a href=&quot;\nhttp://imageshack.us/a/img824/6831/horriblesubsnarutoshippt.jpg&quot; rel=&quot;nofollow&quot; target=&quot;_NEW&quot;&gt;\nhttp://imageshack.us/a/img824/6831/horriblesubsnarutoshippt.jpg&lt;/a&gt; &lt;a href=&quot;\nhttp://imageshack.us/a/img594/7167/horriblesubsnarutoshippr.jpg&quot; rel=&quot;nofollow&quot; target=&quot;_NEW&quot;&gt;\nhttp://imageshack.us/a/img594/7167/horriblesubsnarutoshippr.jpg&lt;/a&gt;\n\n\n\nMedia Info:\n\n\nFormat : Matroska \nFormat version : Version 4 / Version 2 \nFile size : 59.8 MiB \nDuration : 23mn 9s \nOverall bit rate mode : Variable \nOverall bit rate : 361 Kbps \nEncoded date : UTC 2013-03-14 15:14:05 \nWriting application : mkvmerge v6.1.0 ('Old Devil') built on Mar 2 2013 14:32:37 \nWriting library : libebml v1.3.0 + libmatroska v1.4.0 \n\nVideo \nID : 1 \nFormat : AVC \nFormat/Info : Advanced Video Codec \nFormat profile : High &lt;a class=&quot;__cf_email__&quot; href=&quot;/cdn-cgi/l/email-protection&quot; data-cfemail=&quot;506160101c647e61&quot;&gt;[email&amp;#160;protected]&lt;/a&gt;&lt;script cf-hash='f9e31' type=&quot;text/javascript&quot;&gt;\n/* &lt;![CDATA[ */!function(){try{var t=&quot;currentScript&quot;in document?document.currentScript:function(){for(var t=document.getElementsByTagName(&quot;script&quot;),e=t.length;e--;)if(t[e].getAttribute(&quot;cf-hash&quot;))return t[e]}();if(t&amp;&amp;t.previousSibling){var e,r,n,i,c=t.previousSibling,a=c.getAttribute(&quot;data-cfemail&quot;);if(a){for(e=&quot;&quot;,r=parseInt(a.substr(0,2),16),n=2;a.length-n;n+=2)i=parseInt(a.substr(n,2),16)^r,e+=String.fromCharCode(i);e=document.createTextNode(e),c.parentNode.replaceChild(e,c)}}}catch(u){}}();/* ]]&gt; */&lt;/script&gt; \nFormat settings, CABAC : Yes \nFormat settings, ReFrames : 4 frames \nCodec ID : V_MPEG4/ISO/AVC \nDuration : 23mn 9s \nBit rate : 300 Kbps \nWidth : 848 pixels \nHeight : 480 pixels \nDisplay aspect ratio : 16:9 \nFrame rate mode : Constant \nFrame rate : 23.976 fps \nColor space : YUV \nChroma subsampling : 4:2:0 \nBit depth : 10 bits \nScan type : Progressive \nBits/(Pixel*Frame) : 0.031 \nStream size : 47.7 MiB (80%) \nWriting library : x264 core\nDefault : Yes \nForced : No \n\nAudio \nID : 2 \nFormat : Vorbis \nFormat settings, Floor : 1 \nCodec ID : A_VORBIS \nDuration : 23mn 9s \nBit rate mode : Variable \nBit rate : 65.5 Kbps \nChannel(s) : 1 channel \nSampling rate : 44.1 KHz \nCompression mode : Lossy \nStream size : 10.9 MiB (18%) \nWriting library : aoTuV\nLanguage : Japanese \nDefault : Yes \nForced : No \n\nText \nID : 3 \nFormat : ASS \nCodec ID : S_TEXT/ASS \nCodec ID/Info : Advanced Sub Station Alpha \nCompression mode : Lossless \nLanguage : English \nDefault : Yes \nForced : No","torrent":{"xt":"urn:btih:618eb103e2d1ce4fb173f4203c7e7995fa5f815b","amp;dn":"Naruto.Shippuuden.Ep-304.480p.10BiT%5BgWc%5D.mkv","amp;tr":["udp%3A%2F%2Ftracker.openbittorrent.com%3A80","udp%3A%2F%2Fopen.demonii.com%3A1337","udp%3A%2F%2Ftracker.coppersurfer.tk%3A6969","udp%3A%2F%2Fexodus.desync.com%3A6969"],"infoHash":"618eb103e2d1ce4fb173f4203c7e7995fa5f815b","infoHashBuffer":{"type":"Buffer","data":[97,142,177,3,226,209,206,79,177,115,244,32,60,126,121,149,250,95,129,91]},"announce":[],"urlList":[]}}